<?xml version="1.0" encoding="UTF-8" standalone="no"?>
<!-- Created with Inkscape (http://www.inkscape.org/) -->

<svg
   xmlns:dc="http://purl.org/dc/elements/1.1/"
   xmlns:cc="http://creativecommons.org/ns#"
   xmlns:rdf="http://www.w3.org/1999/02/22-rdf-syntax-ns#"
   xmlns:svg="http://www.w3.org/2000/svg"
   xmlns="http://www.w3.org/2000/svg"
   xmlns:sodipodi="http://sodipodi.sourceforge.net/DTD/sodipodi-0.dtd"
   xmlns:inkscape="http://www.inkscape.org/namespaces/inkscape"
   width="1003.0638"
   height="456.38174"
   id="svg2"
   version="1.1"
   inkscape:version="0.48.1 "
   sodipodi:docname="Dragon Ball GT.svg"
   style="display:inline">
  <defs
     id="defs4" />
  <sodipodi:namedview
     id="base"
     pagecolor="#ffffff"
     bordercolor="#666666"
     borderopacity="1.0"
     inkscape:pageopacity="0.0"
     inkscape:pageshadow="2"
     inkscape:zoom="0.98994949"
     inkscape:cx="262.92835"
     inkscape:cy="250.0752"
     inkscape:document-units="px"
     inkscape:current-layer="layer2"
     showgrid="false"
     fit-margin-top="1"
     fit-margin-left="0"
     fit-margin-right="0"
     fit-margin-bottom="0"
     inkscape:window-width="1920"
     inkscape:window-height="996"
     inkscape:window-x="-8"
     inkscape:window-y="-8"
     inkscape:window-maximized="1"
     inkscape:snap-smooth-nodes="false" />
  <metadata
     id="metadata7">
    <rdf:RDF>
      <cc:Work
         rdf:about="">
        <dc:format>image/svg+xml</dc:format>
        <dc:type
           rdf:resource="http://purl.org/dc/dcmitype/StillImage" />
        <dc:title />
      </cc:Work>
    </rdf:RDF>
  </metadata>
  <g
     inkscape:groupmode="layer"
     id="layer2"
     inkscape:label="logo_red"
     transform="translate(130.97768,-214.71372)"
     style="display:inline"
     sodipodi:insensitive="true">
    <path
       style="fill:#e71600;fill-opacity:1;stroke:#e71600;stroke-width:1px;stroke-linecap:butt;stroke-linejoin:miter;stroke-opacity:1"
       d="m 76.403938,408.82554 775.154662,0 154.7984,-370.491382 z"
       id="path3008"
       inkscape:connector-curvature="0"
       transform="translate(-139.07143,205.93361)"
       sodipodi:nodetypes="cccc" />
  </g>
  <g
     inkscape:groupmode="layer"
     id="layer3"
     inkscape:label="logo_black"
     style="display:inline"
     sodipodi:insensitive="true"
     transform="translate(-8.09375,-8.780109)">
    <path
       style="fill:#000000;fill-opacity:1;stroke:#000000;stroke-width:1px;stroke-linecap:butt;stroke-linejoin:round;stroke-opacity:1"
       d="m 741.95704,186.44405 -27.27411,80.30713 51.51778,0 -69.19545,190.41376 158.59395,0 c -23.55513,-12.53619 -57.08015,-18.87487 -47.47717,-52.02286 l 52.02285,-138.3909 64.64977,0 c 17.93131,-29.73839 34.59531,-59.82882 85.86294,-80.30713 z"
       id="path3783"
       inkscape:connector-curvature="0"
       sodipodi:nodetypes="cccccccccc" />
    <path
       sodipodi:type="arc"
       style="opacity:0.95999995;fill:#000000;fill-opacity:1;stroke:#000000;stroke-width:1;stroke-linecap:butt;stroke-linejoin:round;stroke-miterlimit:4;stroke-opacity:1;stroke-dasharray:none;stroke-dashoffset:0"
       id="path3787"
       sodipodi:cx="548.00775"
       sodipodi:cy="86.944031"
       sodipodi:rx="69.700523"
       sodipodi:ry="69.700523"
       d="m 617.70827,86.944031 a 69.700523,69.700523 0 1 1 -139.40104,0 69.700523,69.700523 0 1 1 139.40104,0 z"
       transform="matrix(1.1007267,0,0,1.1007267,-54.693942,-6.7372811)" />
    <path
       style="fill:#000000;fill-opacity:1;stroke:#000000;stroke-width:1px;stroke-linecap:butt;stroke-linejoin:round;stroke-opacity:1"
       d="m 65,188.84375 -56.40625,155.125 78,0 c 7.578981,-0.0536 19.35727,-7.39178 23.6875,-15.25 l 5.9375,0 -11.15625,15.25 53.03125,0 L 174.25,317 l 10.59375,0 -0.5,26.96875 129.8125,0 21.8125,-61.65625 -32.9375,0 32.59375,-93.46875 -50.25,0 -51.53125,130.4375 20.71875,-130.4375 -54.0625,0 -66.40625,109.5625 c -0.69769,-11.34757 -3.08129,-20.15584 -6.46875,-27.46875 l 0.65625,-3.90625 c 37.46888,-13.25539 32.97117,-76.151 -1.25,-78.1875 z m 33.9375,40.8125 c 5.67683,0.10931 8.34859,2.50254 7.5,5.4375 -0.99809,2.7098 -2.71975,4.96479 -10.375,4.375 z m 100.34629,30.60898 -1.1166,10.95352 -6.63594,0 z M 78.40625,283.9375 c 4.492235,0.26358 9.227561,0.19398 7.5,7.65625 -2.249155,8.27663 -7.741294,5.81771 -12.34375,6.25 z"
       id="path3793"
       inkscape:connector-curvature="0"
       sodipodi:nodetypes="ccccccccccccccccccccccccccccccccccc" />
    <path
       style="fill:#000000;fill-opacity:1;stroke:#000000;stroke-width:1px;stroke-linecap:butt;stroke-linejoin:round;stroke-opacity:1"
       d="m 374.26152,188.83579 51.0127,0 -32.32488,93.49114 33.33503,0 -20.70812,61.64145 -86.87312,0 z"
       id="path3795"
       inkscape:connector-curvature="0"
       sodipodi:nodetypes="ccccccc" />
    <path
       style="fill:#000000;fill-opacity:1;stroke:#000000;stroke-width:1px;stroke-linecap:butt;stroke-linejoin:round;stroke-opacity:1"
       d="m 603.06107,163.6002 58.58885,0 10.85914,-25.13839 5.05076,25.13839 53.53809,0 57.57869,-153.320091 -53.28555,0 -14.89975,39.035741 -10.85914,-39.035741 -49.49747,0 z"
       id="path3799"
       inkscape:connector-curvature="0"
       sodipodi:nodetypes="ccccccccccc" />
    <path
       style="fill:#000000;fill-opacity:1;stroke:#000000;stroke-width:1px;stroke-linecap:butt;stroke-linejoin:round;stroke-opacity:1"
       d="m 63.9375,10.28125 -54.65625,153.3125 72.875,0 c 12.130127,0.18404 22.76874,-3.68662 31.78125,-22.15625 l 8.5625,0 -11.4375,22.15625 53.21875,0 12.5,-33.9375 2.875,0 1.78125,33.9375 95,0 13.5625,-25.375 11.78125,0 -3.9375,25.375 44.3125,0 L 365,10.28125 l -52.84375,0 -82.875,140.0625 L 225,121.78125 C 246.84607,110.33192 263.36029,88.898755 270,48.9375 271.87953,32.01476 257.72505,10.566966 244.28125,10.28125 l -77.84375,0 L 150,59.65625 c 3.11329,-23.416047 -11.53835,-49.552335 -27.84375,-49.375 z m 138.125,50.625 c 5.5411,0.274909 8.99985,2.350046 6.875,9.8125 -1.30386,5.233212 -6.34504,7.550992 -13.125,6.59375 z m -109.03125,4.4375 c 2.908884,0.694941 9.18351,1.482267 7.9375,7.1875 L 89.1875,105.625 c -3.771594,6.14451 -9.014757,5.46085 -12.84375,4.46875 z m 221.25893,16.616071 -0.35268,10.883929 -7.15625,0 z"
       id="path3801"
       inkscape:connector-curvature="0"
       sodipodi:nodetypes="cccccccccccccccccccccccccccccccccccccc" />
    <path
       style="fill:#000000;fill-opacity:1;stroke:#000000;stroke-width:1px;stroke-linecap:butt;stroke-linejoin:round;stroke-opacity:1"
       d="m 490,10.280109 -15.71428,44.184176 -39.64286,0 c -12.7416,2.118074 -18.43131,8.033326 -22.5,14.821428 l -13.92857,35.357147 c -3.25817,8.6362 -2.31616,14.44359 3.21428,14.64285 7.55862,1.04809 9.43522,-4.29609 11.78572,-9.10714 l -10,0 14.55356,-39.017856 56.16072,0 -22.85714,55.982146 C 441.74644,148.13417 427.30696,164.72134 393.92857,165 358.5428,164.95512 341.81724,150.30659 352.85714,113.92857 L 378.57143,46.071428 C 383.80236,31.56142 403.43486,10.4163 419.28571,10.280109 z"
       id="path3803"
       inkscape:connector-curvature="0"
       sodipodi:nodetypes="cccccccccccccccc" />
    <path
       style="fill:#000000;fill-opacity:1;stroke:#000000;stroke-width:1px;stroke-linecap:butt;stroke-linejoin:round;stroke-opacity:1"
       d="m 558.61436,281.3984 188.39345,0.50507 c -31.81187,14.15007 -65.66762,26.25627 -82.83251,55.05332 l -40.91118,68.18529 c -28.00925,43.02964 -65.8644,65.07394 -128.33578,58.31837 -43.44987,-6.30635 -86.24396,-25.10159 -63.5932,-93.16863 L 482.85292,243.0126 c 21.67468,-42.7771 49.68221,-59.07135 81.82235,-58.08377 l 170.21071,0.50508 c -37.4891,14.11515 -67.62799,35.88676 -82.32744,73.74113 l -63.63961,0 c -16.54616,-1.04948 -35.65415,4.90651 -45.96194,26.26397 l -29.29442,69.19545 c -4.33484,13.14796 -4.03632,23.80102 16.16244,23.73858 25.84733,1.69148 33.72306,-13.77174 38.89087,-31.8198 l -35.35534,-0.50508 z"
       id="path3814"
       inkscape:connector-curvature="0"
       sodipodi:nodetypes="ccccccccccccccccc" />
  </g>
  <g
     inkscape:groupmode="layer"
     id="layer4"
     inkscape:label="logo_text"
     style="display:inline"
     sodipodi:insensitive="true"
     transform="translate(-8.09375,-8.780109)">
    <path
       style="fill:#ffffff;fill-opacity:1;stroke:#ffffff;stroke-width:1px;stroke-linecap:butt;stroke-linejoin:round;stroke-opacity:1"
       d="m 754.28572,201.07143 -18.57143,50.17857 53.92857,0 -71.78572,191.1977 84.3111,0 c -6.97712,-7.89526 -18.04399,-14.95079 -10.73967,-38.51913 L 847.5,251.25 l 69.64286,0 c 11.22634,-15.90307 19.8221,-31.07543 42.56871,-50.17857 z"
       id="path3785"
       inkscape:connector-curvature="0"
       sodipodi:nodetypes="cccccccccc" />
    <path
       sodipodi:type="arc"
       style="fill:#ffc317;fill-opacity:1;stroke:#ffc317;stroke-width:1;stroke-linecap:butt;stroke-linejoin:round;stroke-miterlimit:4;stroke-opacity:1;stroke-dasharray:none;stroke-dashoffset:0"
       id="path3789"
       sodipodi:cx="576.03949"
       sodipodi:cy="115.48084"
       sodipodi:rx="29.041885"
       sodipodi:ry="29.041885"
       d="m 605.08138,115.48084 a 29.041885,29.041885 0 1 1 -58.08378,0 29.041885,29.041885 0 1 1 58.08378,0 z"
       transform="matrix(2.2822716,0,0,2.2822716,-766.16575,-174.59431)" />
    <path
       style="fill:#ffc317;fill-opacity:1;stroke:#ffc317;stroke-width:1px;stroke-linecap:butt;stroke-linejoin:miter;stroke-opacity:1"
       d="m 619.28572,153.07904 34.28571,0 21.78571,-57.721898 12.14286,57.721898 35,0 47.5,-131.121086 -26.42857,0 -27.85714,68.399188 -17.5,-68.399188 -30.35715,0 z"
       id="path3816"
       inkscape:connector-curvature="0"
       sodipodi:nodetypes="ccccccccccc" />
    <path
       style="fill:#ffc317;fill-opacity:1;stroke:#ffc317;stroke-width:1px;stroke-linecap:butt;stroke-linejoin:miter;stroke-opacity:1"
       d="m 321.0625,21.96875 -78.03125,131.125 22.40625,0 14.3125,-26.28125 36.3125,0 -4.15625,26.28125 19.96875,0 20.8125,-131.125 -31.625,0 z m -5.71875,36.0625 12.15625,0 -6.0625,46.78125 -32.5,0 26.40625,-46.78125 z"
       id="path3818"
       inkscape:connector-curvature="0" />
    <path
       style="fill:#ffc317;fill-opacity:1;stroke:#ffc317;stroke-width:1px;stroke-linecap:butt;stroke-linejoin:miter;stroke-opacity:1"
       d="m 176.0625,21.96875 -47,131.125 26.65625,0 12.5,-35.40625 22.84375,0 3.9375,35.40625 18.9375,0 -2.46875,-39.125 C 228.29706,108.78681 242.5,98.543759 249.28125,73.9375 l 6.0625,-23.59375 c 2.61325,-15.476574 -5.83393,-27.04023 -20.6875,-28.375 l -58.59375,0 z m 16.78125,27.6875 19.65625,0 c 8.96902,0.316695 12.76254,5.795499 9.28125,18.5625 -2.78288,11.933023 -13.79117,22.111908 -18.9375,21.96875 l -24.28125,0 14.28125,-40.53125 z"
       id="path3822"
       inkscape:connector-curvature="0" />
    <path
       style="fill:#ffc317;fill-opacity:1;stroke:#ffc317;stroke-width:1px;stroke-linecap:butt;stroke-linejoin:miter;stroke-opacity:1"
       d="m 72.84375,21.96875 -47.28125,131.125 56.59375,0 c 11.414641,-1.07131 21.78124,-9.91272 30.34375,-32.375 L 136.4375,48.9375 c 2.84527,-14.281988 -3.65667,-23.162727 -18.90625,-26.96875 l -44.6875,0 z m 11.8125,31.25 17.5,0 c 6.95503,0.09044 12.31167,8.777967 9.625,18.9375 L 98.21875,107.5 c -5.238095,12.39073 -10.382441,16.08717 -16.78125,16.0625 l -21.09375,0 24.3125,-70.34375 z"
       id="path3826"
       inkscape:connector-curvature="0" />
    <path
       style="fill:#ffc317;fill-opacity:1;stroke:#ffc317;stroke-width:1px;stroke-linecap:butt;stroke-linejoin:miter;stroke-opacity:1"
       d="m 472.75139,21.957954 -7.3236,24.0749 -35.10281,0 c -13.6519,0.291103 -23.72592,9.632986 -27.52665,19.192898 l -15.15229,39.648488 c -3.01183,10.71971 -3.48558,23.96876 12.62691,25.75889 7.54159,0.83765 25.22567,-6.12103 30.80965,-29.7995 l -12.37437,0 6.81853,-19.950513 31.06219,0.505076 -17.17259,42.678947 c -7.19068,19.13286 -20.71368,31.10021 -45.96194,29.7995 -24.28931,0.0338 -41.05771,-7.03556 -31.31473,-39.14341 l 24.24366,-58.083775 c 7.74181,-17.654612 18.67123,-33.317527 36.87057,-34.681501 z"
       id="path3830"
       inkscape:connector-curvature="0"
       sodipodi:nodetypes="cccccccccccccccc" />
    <path
       style="fill:#ffc317;fill-opacity:1;stroke:#ffc317;stroke-width:1px;stroke-linecap:butt;stroke-linejoin:miter;stroke-opacity:1"
       d="m 381.42857,198.92858 25,0 -33.57143,95.89284 36.07143,0 -10.71428,35.89287 -64.64286,0 z"
       id="path3832"
       inkscape:connector-curvature="0"
       sodipodi:nodetypes="ccccccc" />
    <path
       style="fill:#ffc317;fill-opacity:1;stroke:#ffc317;stroke-width:1px;stroke-linecap:butt;stroke-linejoin:miter;stroke-opacity:1"
       d="m 293.57143,198.92858 23.92857,0 -33.21429,95.89284 31.42858,0 -12.14286,35.89287 -58.92857,0 z"
       id="path3834"
       inkscape:connector-curvature="0"
       sodipodi:nodetypes="ccccccc" />
    <path
       style="fill:#ffc317;fill-opacity:1;stroke:#ffc317;stroke-width:1px;stroke-linecap:butt;stroke-linejoin:miter;stroke-opacity:1"
       d="m 207.84375,198.9375 -80,131.78125 20.375,0 16.0625,-25.1875 34.65625,0 -1.78125,25.1875 21.78125,0 18.90625,-131.78125 -30,0 z M 200,236.78125 l 11.4375,0 -6.4375,45.375 -31.0625,0 26.0625,-45.375 z"
       id="path3836"
       inkscape:connector-curvature="0" />
    <path
       style="fill:#ffc317;fill-opacity:1;stroke:#ffc317;stroke-width:1px;stroke-linecap:butt;stroke-linejoin:miter;stroke-opacity:1"
       d="m 72.84375,198.9375 -48.5625,131.78125 58.21875,0 c 29.0706,-0.35741 51.74987,-42.23782 25.34375,-66.0625 32.91234,-4.94444 54.87836,-53.8984 11.8125,-65.71875 l -46.8125,0 z m 20,18.375 13.9375,0 c 13.95205,2.31632 9.69884,33.2012 -6.0625,33.75 l -20,0 12.125,-33.75 z M 73.5625,272.5 l 15.375,0 c 15.0178,2.28508 7.121523,36.16269 -9.28125,35.71875 l -20.375,0 L 73.5625,272.5 z"
       id="path3840"
       inkscape:connector-curvature="0" />
    <path
       style="fill:#ffffff;fill-opacity:1;stroke:#ffffff;stroke-width:1px;stroke-linecap:butt;stroke-linejoin:round;stroke-opacity:1"
       d="m 675.90555,200.11544 c -22.36998,19.82746 -24.62464,29.12106 -36.61983,43.45599 l -56.07143,0 C 563.01804,243.06873 540.67755,258.09967 530,280.71429 l -30.71428,70.71428 c -6.76207,21.80247 -8.17835,40.79806 22.32142,43.03571 34.26304,1.37674 58.41552,-19.41249 72.67858,-63.74999 l -37.5,0 12.5,-33.75 113.61475,0 c -22.10449,13.80443 -29.15704,28.7778 -37.35206,39.96936 l -28.40555,49.49492 c -26.85903,40.41604 -58.3159,63.94551 -107.5,63.21429 C 451.98813,448.84592 429.79875,425.79621 445,379.28571 l 43.92857,-112.5 c 12.18153,-32.51149 32.25185,-66.32269 70,-66.67027 z"
       id="path3853"
       inkscape:connector-curvature="0"
       sodipodi:nodetypes="ccccccccccccccccc" />
  </g>
  <g
     inkscape:groupmode="layer"
     id="layer5"
     inkscape:label="logo_star"
     style="display:inline"
     sodipodi:insensitive="true"
     transform="translate(-8.09375,-8.780109)">
    <path
       style="fill:#da2b00;fill-opacity:1;stroke:#da2b00;stroke-width:1px;stroke-linecap:butt;stroke-linejoin:miter;stroke-opacity:1"
       d="m 538.91638,69.518901 14.39468,-29.294424 6.06091,30.304577 29.29443,0.505076 -27.7792,19.950513 5.30331,35.355337 -25.00128,-21.97081 -30.80966,21.71828 17.93022,-35.607884 -21.21321,-20.960665 z"
       id="path3791"
       inkscape:connector-curvature="0"
       sodipodi:nodetypes="ccccccccccc" />
  </g>
</svg>
